<?xml version="1.0" standalone="no"?>
<!DOCTYPE svg PUBLIC "-//W3C//DTD SVG 20010904//EN"
 "http://www.w3.org/TR/2001/REC-SVG-20010904/DTD/svg10.dtd">
<svg version="1.0" xmlns="http://www.w3.org/2000/svg"
 width="194.000000pt" height="194.000000pt" viewBox="0 0 194.000000 194.000000"
 preserveAspectRatio="xMidYMid meet">

<g transform="translate(0.000000,194.000000) scale(0.100000,-0.100000)"
fill="#000000" stroke="none">
<path d="M1548 1479 c-20 -4 -188 -58 -375 -119 -186 -61 -356 -113 -379 -116
-32 -5 -55 0 -111 25 -107 47 -222 72 -360 78 -133 6 -197 -4 -246 -39 -36
-26 -47 -55 -35 -90 13 -37 64 -86 113 -109 54 -25 191 -25 359 1 147 23 209
25 256 9 33 -12 293 -201 318 -231 11 -14 5 -20 -51 -46 -35 -17 -94 -41 -131
-54 l-67 -23 -92 33 c-145 53 -197 65 -279 66 -64 1 -81 -3 -105 -20 -49 -37
-30 -118 37 -157 39 -23 218 -70 284 -75 33 -2 85 1 117 7 73 15 91 7 243 -93
142 -93 215 -130 311 -157 80 -22 126 -19 158 9 25 22 21 66 -9 101 -35 42
-78 43 -102 1 -19 -32 -23 -32 -121 1 -65 22 -225 116 -269 158 -43 40 -34 57
53 97 144 66 173 67 385 9 54 -15 136 -29 190 -32 84 -5 101 -3 148 17 105 45
142 133 90 210 -46 67 -67 75 -196 75 -100 0 -143 -6 -288 -39 l-171 -39 -69
38 c-99 54 -294 184 -294 195 0 15 698 238 798 255 41 7 43 6 95 -51 47 -50
57 -56 80 -50 41 10 35 44 -16 94 -65 64 -163 86 -269 61z m-1076 -203 c97
-25 178 -59 178 -76 0 -12 -51 -25 -175 -46 -193 -31 -355 -4 -372 64 -19 78
172 108 369 58z m1351 -340 c53 -35 46 -99 -15 -136 -62 -38 -271 -21 -404 32
-91 36 -84 50 38 82 154 40 186 45 273 42 57 -1 88 -7 108 -20z m-1238 -145
c39 -10 88 -26 109 -35 38 -16 39 -17 23 -34 -14 -14 -36 -17 -115 -17 -119 0
-179 10 -211 34 -24 18 -24 20 -8 45 16 23 24 26 75 26 31 0 89 -9 127 -19z"/>
</g>
</svg>
