<?xml version="1.0" standalone="no"?>
<!DOCTYPE svg PUBLIC "-//W3C//DTD SVG 20010904//EN"
 "http://www.w3.org/TR/2001/REC-SVG-20010904/DTD/svg10.dtd">
<svg version="1.0" xmlns="http://www.w3.org/2000/svg"
 width="880.000000pt" height="526.000000pt" viewBox="0 0 880.000000 526.000000"
 preserveAspectRatio="xMidYMid meet">

<g transform="translate(0.000000,526.000000) scale(0.100000,-0.100000)"
fill="#000000" stroke="none">
<path d="M2348 4487 c-1115 -402 -2025 -733 -2024 -735 2 -1 910 275 2017 613
1108 339 2023 617 2034 616 11 0 918 -274 2015 -609 1097 -336 1996 -609 1998
-608 1 2 -868 317 -1930 701 -1063 384 -1967 711 -2008 726 l-76 27 -2026
-731z"/>
<path d="M1233 3085 c-29 -8 -175 -55 -325 -105 -149 -49 -280 -90 -290 -90
-10 0 -42 12 -70 26 -84 43 -257 77 -360 71 -174 -9 -222 -96 -100 -182 38
-26 54 -30 121 -33 48 -3 123 4 200 17 200 34 187 37 345 -80 75 -56 136 -105
136 -109 0 -12 -184 -90 -214 -90 -15 0 -55 12 -89 26 -88 38 -153 54 -217 54
-74 0 -104 -17 -108 -58 -4 -44 48 -98 104 -106 21 -4 67 -15 101 -27 73 -24
99 -26 176 -10 68 15 71 13 230 -95 103 -70 185 -106 274 -120 80 -12 118 41
72 100 -28 35 -82 34 -87 -2 -3 -20 -7 -22 -40 -16 -52 9 -128 44 -209 97 -84
55 -101 73 -87 95 14 22 162 83 204 83 19 1 85 -13 145 -31 188 -55 296 -51
362 15 54 54 42 135 -26 178 -55 34 -189 29 -344 -12 -65 -17 -131 -31 -147
-31 -30 0 -320 183 -304 192 12 7 280 94 466 152 80 26 166 49 191 52 44 6 46
6 72 -35 30 -44 71 -63 86 -40 13 20 12 24 -16 57 -56 66 -144 86 -252 57z
m-914 -145 c130 -24 221 -64 199 -86 -3 -2 -52 -14 -109 -25 -186 -37 -329
-14 -337 53 -2 19 3 30 20 39 50 27 144 35 227 19z m1146 -284 c62 -26 57
-100 -9 -128 -48 -20 -177 -13 -275 15 -75 21 -115 46 -100 61 3 3 57 19 120
35 126 33 212 39 264 17z m-1027 -117 c135 -31 182 -60 124 -76 -47 -14 -194
-7 -234 10 -42 18 -47 31 -21 59 19 21 62 23 131 7z"/>
<path d="M2113 3079 c-52 -25 -82 -71 -89 -136 -12 -95 4 -121 160 -282 158
-163 181 -202 174 -302 -3 -45 -1 -49 17 -47 18 3 20 11 20 73 0 105 -24 146
-177 296 -74 74 -134 141 -143 162 -29 71 -12 154 40 195 41 32 128 31 177 -3
32 -22 37 -23 49 -9 15 18 9 23 -56 54 -53 26 -120 25 -172 -1z"/>
<path d="M2560 3081 c0 -20 5 -21 76 -21 108 0 150 -15 210 -75 70 -69 88
-125 82 -253 -3 -80 -9 -106 -31 -148 -50 -98 -136 -144 -269 -144 l-68 0 0
-140 c0 -133 1 -140 20 -140 19 0 20 7 20 120 l0 120 43 0 c66 0 156 27 205
63 30 21 58 54 81 97 36 65 36 65 36 190 0 123 0 126 -34 188 -60 109 -133
152 -278 160 -90 5 -93 4 -93 -17z"/>
<path d="M3130 2630 c0 -411 2 -470 15 -470 13 0 15 59 15 470 0 411 -2 470
-15 470 -13 0 -15 -59 -15 -470z"/>
<path d="M3690 3089 c-240 -42 -399 -270 -362 -521 31 -213 175 -372 365 -401
31 -5 37 -3 37 12 0 14 -11 20 -42 25 -96 15 -178 69 -245 159 -57 79 -83 164
-83 278 0 107 17 163 75 245 50 70 92 104 173 142 51 24 68 27 172 27 107 0
119 -2 175 -29 34 -17 83 -53 113 -84 38 -38 57 -51 64 -44 27 27 -107 143
-205 176 -61 21 -167 27 -237 15z"/>
<path d="M4300 2805 c0 -256 2 -295 15 -295 13 0 15 38 15 280 l0 280 145 0
c122 0 145 2 145 15 0 13 -24 15 -160 15 l-160 0 0 -295z"/>
<path d="M5460 3089 c-188 -32 -351 -206 -367 -395 -11 -136 33 -283 114 -383
48 -57 139 -116 206 -131 28 -6 60 -14 70 -17 12 -3 17 1 17 15 0 16 -9 21
-43 26 -138 21 -260 135 -309 289 -26 82 -28 213 -4 284 38 114 148 224 263
265 48 16 76 19 158 16 123 -5 193 -35 271 -114 35 -35 55 -49 64 -44 10 6 7
16 -15 42 -65 79 -158 131 -262 148 -67 11 -87 11 -163 -1z"/>
<path d="M6358 3085 c-113 -28 -232 -111 -281 -194 -17 -29 -17 -32 -1 -38 11
-4 20 1 27 13 28 51 105 117 176 152 74 37 76 37 196 37 117 0 122 -1 190 -34
352 -173 328 -663 -40 -800 -82 -31 -215 -31 -299 -2 -47 17 -61 18 -67 9 -10
-17 22 -34 103 -54 80 -21 201 -14 281 16 131 49 249 173 288 302 28 90 23
223 -11 310 -46 117 -161 226 -283 268 -81 27 -205 34 -279 15z"/>
<path d="M7110 2632 l0 -472 78 0 c90 0 122 7 122 26 0 11 -16 12 -80 7 l-80
-6 0 438 0 437 83 -4 c137 -6 231 -67 292 -191 77 -155 69 -351 -19 -502 -24
-39 -102 -118 -142 -141 -15 -9 -16 -15 -7 -24 30 -32 146 83 199 195 77 165
69 383 -19 522 -38 60 -121 129 -184 153 -34 12 -93 23 -149 27 l-94 6 0 -471z"/>
<path d="M7770 2805 c0 -256 2 -295 15 -295 13 0 15 38 15 280 l0 280 145 0
c122 0 145 2 145 15 0 13 -24 15 -160 15 l-160 0 0 -295z"/>
<path d="M8315 3068 c8 -20 22 -34 34 -36 24 -4 24 -4 10 37 -8 23 -17 31 -34
31 -23 0 -24 -1 -10 -32z"/>
<path d="M8637 3083 c-2 -10 -8 -26 -12 -36 -6 -15 -4 -18 15 -15 14 2 27 15
35 36 14 31 13 32 -9 32 -14 0 -26 -7 -29 -17z"/>
<path d="M4300 2315 l0 -155 165 0 c140 0 165 2 165 15 0 13 -23 15 -150 15
l-150 0 0 125 0 125 25 0 c16 0 25 6 25 15 0 11 -11 15 -40 15 l-40 0 0 -155z"/>
<path d="M7770 2315 l0 -155 165 0 c140 0 165 2 165 15 0 13 -23 15 -150 15
l-150 0 0 125 0 125 25 0 c16 0 25 6 25 15 0 11 -11 15 -40 15 l-40 0 0 -155z"/>
<path d="M4070 2315 c-54 -55 -144 -102 -211 -111 -39 -5 -49 -10 -49 -25 0
-11 6 -19 13 -19 31 0 134 33 178 56 81 45 165 144 120 144 -4 0 -27 -20 -51
-45z"/>
<path d="M5839 2314 c-53 -54 -143 -101 -210 -110 -39 -5 -49 -10 -49 -26 0
-16 5 -18 38 -13 101 17 167 50 239 118 56 53 61 62 39 70 -7 3 -32 -14 -57
-39z"/>
<path d="M2317 2247 c-9 -23 -73 -47 -126 -47 -44 0 -51 -3 -51 -20 0 -17 7
-20 50 -20 28 0 67 7 88 16 37 15 92 61 92 76 0 14 -48 9 -53 -5z"/>
<path d="M8278 2200 c-16 -40 -16 -40 5 -40 16 0 27 11 39 40 16 40 16 40 -5
40 -16 0 -27 -11 -39 -40z"/>
<path d="M8650 2235 c0 -2 8 -20 17 -40 12 -25 23 -35 40 -35 l23 0 -20 40
c-13 26 -27 40 -40 40 -11 0 -20 -2 -20 -5z"/>
<path d="M8370 1940 c-8 -5 -10 -10 -5 -10 6 0 17 5 25 10 8 5 11 10 5 10 -5
0 -17 -5 -25 -10z"/>
<path d="M6360 1104 c-1086 -453 -1980 -824 -1986 -824 -6 0 -924 355 -2039
789 -1116 435 -2030 789 -2032 788 -4 -4 4040 -1800 4062 -1804 12 -2 841 384
1987 926 1082 511 1975 934 1985 940 10 6 14 10 8 10 -5 -1 -899 -372 -1985
-825z"/>
</g>
</svg>
